<svg width="60" height="60" viewBox="0 0 60 60" fill="none" xmlns="http://www.w3.org/2000/svg">
<path d="M3 37.5703C3.375 33.112 4.73958 29.0078 7.09375 25.2578C9.44792 21.5078 12.5833 18.5286 16.5 16.3203L11.875 8.32031C11.625 7.94531 11.5625 7.54948 11.6875 7.13281C11.8125 6.71615 12.0833 6.40365 12.5 6.19531C12.8333 5.98698 13.2083 5.94531 13.625 6.07031C14.0417 6.19531 14.375 6.44531 14.625 6.82031L19.25 14.8203C22.8333 13.3203 26.5833 12.5703 30.5 12.5703C34.4167 12.5703 38.1667 13.3203 41.75 14.8203L46.375 6.82031C46.625 6.44531 46.9583 6.19531 47.375 6.07031C47.7917 5.94531 48.1667 5.98698 48.5 6.19531C48.9167 6.40365 49.1875 6.71615 49.3125 7.13281C49.4375 7.54948 49.375 7.94531 49.125 8.32031L44.5 16.3203C48.4167 18.5286 51.5521 21.5078 53.9062 25.2578C56.2604 29.0078 57.625 33.112 58 37.5703H3ZM18 30.6953C18.875 30.6953 19.6146 30.3932 20.2188 29.7891C20.8229 29.1849 21.125 28.4453 21.125 27.5703C21.125 26.6953 20.8229 25.9557 20.2188 25.3516C19.6146 24.7474 18.875 24.4453 18 24.4453C17.125 24.4453 16.3854 24.7474 15.7812 25.3516C15.1771 25.9557 14.875 26.6953 14.875 27.5703C14.875 28.4453 15.1771 29.1849 15.7812 29.7891C16.3854 30.3932 17.125 30.6953 18 30.6953ZM43 30.6953C43.875 30.6953 44.6146 30.3932 45.2188 29.7891C45.8229 29.1849 46.125 28.4453 46.125 27.5703C46.125 26.6953 45.8229 25.9557 45.2188 25.3516C44.6146 24.7474 43.875 24.4453 43 24.4453C42.125 24.4453 41.3854 24.7474 40.7812 25.3516C40.1771 25.9557 39.875 26.6953 39.875 27.5703C39.875 28.4453 40.1771 29.1849 40.7812 29.7891C41.3854 30.3932 42.125 30.6953 43 30.6953Z" fill="#A6A299"/>
</svg>
